<svg id="Layer_1" data-name="Layer 1" xmlns="http://www.w3.org/2000/svg" viewBox="0 0 1920 1080"><defs><style>.cls-1{fill:#e65b26;}</style></defs><title>vector file</title><path class="cls-1" d="M925.39,760.9v.3c0,2.64-59.15-17.8-64.19-20.37a218,218,0,0,1-55.6-40.59c-34.86-35.1-55.56-81.4-61.29-130.36a247.1,247.1,0,0,1,5.46-87.33,236.23,236.23,0,0,1,13.36-39.32c15.47-35,39.76-66,71.16-88q8.12-5.7,16.74-10.61c67-38.18,157-37.47,224.73-1.31a183.66,183.66,0,0,1,51.4,40.94A188.74,188.74,0,0,1,1158,432.66c14.6,33,21,72.36,19,117.26H937.9l-22.26-25.56H1145.8l-1-17.95a183.38,183.38,0,0,0-10.55-52.79,148.81,148.81,0,0,0-6.23-14.74c-30.74-63.42-98-92.59-165.67-92.59-50,0-91.47,14.43-123.37,42.91-75.19,67.1-78.85,195.68-21.71,274.69,25.33,35,64.75,60.52,108.08,65.59Z"/><polygon class="cls-1" points="1125.58 762.84 942.91 555.67 915.64 524.36 955.15 524.36 1001.91 578.04 1165.3 762.84 1125.58 762.84"/><path class="cls-1" d="M960.69,763.94a221.76,221.76,0,0,1-146-54.23l21.59-22.32c34.42,29,78.79,44.45,124.39,44.45a190.82,190.82,0,0,0,47.58-6l23.4,26.54A222,222,0,0,1,960.69,763.94Z"/></svg>