<svg id="Layer_1" data-name="Layer 1" xmlns="http://www.w3.org/2000/svg" viewBox="380 400 1170 280"><defs><style>.cls-1{fill:#FB5C01;}.cls-2{fill:#FDFCFB;}</style></defs><title>e|Resilient</title><path class="cls-1" d="M483.54,653.92v.16c0,1.36-30.51-9.19-33.11-10.51a112.28,112.28,0,0,1-28.67-20.93c-18-18.11-28.65-42-31.61-67.23a127.42,127.42,0,0,1,2.82-45,120.72,120.72,0,0,1,6.89-20.27c8-18,20.5-34.05,36.7-45.4q4.19-2.94,8.63-5.47c34.54-19.69,81-19.33,115.89-.68a94.82,94.82,0,0,1,26.51,21.12,97,97,0,0,1,15.9,25c7.53,17,10.82,37.32,9.8,60.48H490l-11.48-13.19h118.7l-.54-9.25a94.81,94.81,0,0,0-5.44-27.23,79.09,79.09,0,0,0-3.21-7.6c-15.86-32.7-50.53-47.75-85.45-47.75-25.76,0-47.17,7.44-63.62,22.13-38.77,34.61-40.66,100.91-11.19,141.66,13.06,18.06,33.39,31.21,55.73,33.83Z"/><polygon class="cls-1" points="586.78 654.92 492.57 548.08 478.51 531.93 498.88 531.93 523 559.62 607.26 654.92 586.78 654.92"/><path class="cls-1" d="M501.74,655.49a114.33,114.33,0,0,1-75.28-28L437.59,616c17.75,15,40.63,22.93,64.15,22.93a98.52,98.52,0,0,0,24.54-3.07l12.07,13.68A114.53,114.53,0,0,1,501.74,655.49Z"/><path class="cls-2" d="M918.49,490.43q-7.5-8.24-20.94-8.25-12.46,0-20.29,7.82t-7.81,20.06q0,12.93,7.87,20.62t21,7.7A35.14,35.14,0,0,0,911.05,536a26.63,26.63,0,0,0,10.26-6.72l-7.27-7a16.82,16.82,0,0,1-6.78,4.18,26,26,0,0,1-8.73,1.57q-7.28,0-12-3.69a14.16,14.16,0,0,1-5.48-9.76h43.39Q926,498.67,918.49,490.43Zm-37.22,14.65a15.4,15.4,0,0,1,5.81-9.55,17.48,17.48,0,0,1,10.8-3.37q6.82,0,11.11,3.37a12.67,12.67,0,0,1,4.73,9.55Z"/><path class="cls-2" d="M950.06,456.79v90.38h11.07V456.79Z"/><path class="cls-2" d="M1056.71,534.91,1034,509.63q10.52-1.51,15.56-8.08a24.79,24.79,0,0,0,5.05-15.57,24.25,24.25,0,0,0-7.1-17.52q-7.11-7.33-19.69-7.33-5.86,0-17.69-.05T992.48,461v76.05h12.15V510.82h16l23.11,26.26H1058Zm-52.08-35.15V472.21h23.22c4.69,0,8.27,1.38,10.73,4.17a14.38,14.38,0,0,1,3.7,9.82,13.56,13.56,0,0,1-3.7,9.66q-3.69,3.9-10.85,3.9Z"/><path class="cls-2" d="M1124.84,490.43q-7.48-8.24-20.94-8.25-12.48,0-20.29,7.82t-7.81,20.06q0,12.93,7.87,20.62t21,7.7a35.23,35.23,0,0,0,12.75-2.39,26.59,26.59,0,0,0,10.25-6.72l-7.27-7a16.82,16.82,0,0,1-6.78,4.18,26,26,0,0,1-8.74,1.57q-7.26,0-12-3.69a14.16,14.16,0,0,1-5.48-9.76h43.4Q1132.32,498.67,1124.84,490.43Zm-37.21,14.65a15.39,15.39,0,0,1,5.8-9.55,17.47,17.47,0,0,1,10.79-3.37q6.84,0,11.12,3.37a12.6,12.6,0,0,1,4.72,9.55Z"/><path class="cls-2" d="M1196.17,513.53a12.46,12.46,0,0,0-5.75-5,34.33,34.33,0,0,0-7.05-2.39,70.39,70.39,0,0,0-7.87-1.15q-11.51-1.08-11.61-6.83a5.26,5.26,0,0,1,3.09-4.82,16.62,16.62,0,0,1,8.3-1.58q8.68,0,14.11,5l6.29-7.38q-8-7.17-20.61-7.17a29.47,29.47,0,0,0-15.46,4.07,13.3,13.3,0,0,0-6.78,12.21q.11,14,21.8,16.06,6.28.65,9.38,2.27a5.19,5.19,0,0,1,3,5.1,5.8,5.8,0,0,1-3.47,5.21,17,17,0,0,1-7.92,1.74q-11.83-.23-18.77-7.93l-5.86,7.93q8.79,9.85,24.41,9.86,10.32,0,16.49-4.66a14.9,14.9,0,0,0,6.29-12.26A15.83,15.83,0,0,0,1196.17,513.53Z"/><path class="cls-2" d="M1231.48,461.79a7.36,7.36,0,0,0-6.94,0,6.23,6.23,0,0,0-3.48,6.07,6.36,6.36,0,0,0,3.48,6.14,7.19,7.19,0,0,0,6.94,0,6.35,6.35,0,0,0,3.47-6.14Q1235,463.53,1231.48,461.79Zm-9.11,21.59v53.7h11.17v-53.7Z"/><path class="cls-2" d="M1262.18,461.25v75.83h11.18V461.25Z"/><path class="cls-2" d="M1311.11,461.79a7.36,7.36,0,0,0-6.94,0q-3.47,1.74-3.47,6.07a6.35,6.35,0,0,0,3.47,6.14,7.19,7.19,0,0,0,6.94,0,6.33,6.33,0,0,0,3.47-6.14C1314.58,465,1313.43,463,1311.11,461.79ZM1302,483.38v53.7h11.17v-53.7Z"/><path class="cls-2" d="M1387.16,490.43q-7.48-8.24-20.94-8.25-12.46,0-20.28,7.82t-7.81,20.06q0,12.93,7.86,20.62t21,7.7a35.23,35.23,0,0,0,12.75-2.39,26.51,26.51,0,0,0,10.25-6.72l-7.26-7a16.82,16.82,0,0,1-6.78,4.18,26,26,0,0,1-8.74,1.57q-7.26,0-12-3.69a14.11,14.11,0,0,1-5.47-9.76h43.39Q1394.65,498.67,1387.16,490.43ZM1350,505.08a15.36,15.36,0,0,1,5.81-9.55,17.48,17.48,0,0,1,10.8-3.37q6.82,0,11.11,3.37a12.63,12.63,0,0,1,4.72,9.55Z"/><path class="cls-2" d="M1463,489.56a21.77,21.77,0,0,0-16.55-6.83q-10.41,0-18,8.57l-.65-7.81h-10.2v53.59h11.17v-28A16.34,16.34,0,0,1,1433,497.7a13.85,13.85,0,0,1,10.74-4.67q6.82,0,10.63,4.18c2.53,2.78,3.8,6.53,3.8,11.22v28.65h11.28V508.33Q1469.4,496.39,1463,489.56Z"/><path class="cls-2" d="M1527.44,525.8a15.54,15.54,0,0,1-6.83,1.84q-7.71,0-7.7-8.78v-25.5h15.72V483.7H1513V468.19l-11.28,1.19V483.7h-10.31v9.66h10.31v25.5q0,9.42,4.72,14.26t13.5,4.61a26.57,26.57,0,0,0,10.75-2.39Z"/><path class="cls-2" d="M888.59,609.69a5.28,5.28,0,0,0-3.08-2.28,4.91,4.91,0,0,0,3.38-4.83,6.11,6.11,0,0,0-2.3-5.21,9.59,9.59,0,0,0-6-1.74H869.45V620h11.16a15.54,15.54,0,0,0,4.5-.59,6.55,6.55,0,0,0,3.24-2.21,6.38,6.38,0,0,0,1.3-4.15A6.18,6.18,0,0,0,888.59,609.69Zm-15.28-10.55h7.3a4.69,4.69,0,0,1,3.23,1.06,3.2,3.2,0,0,1,1.18,2.45,2.6,2.6,0,0,1-1.11,2.26,5.58,5.58,0,0,1-3.26.8h-7.34Zm10.88,16.43a7.92,7.92,0,0,1-3.58.78h-7.3v-7.17h7.34a6.42,6.42,0,0,1,3.5,1,3.1,3.1,0,0,1,1.61,2.8A2.69,2.69,0,0,1,884.19,615.57Z"/><path class="cls-2" d="M915.17,605a8.61,8.61,0,0,0-6.71-2.63,8.81,8.81,0,0,0-6.5,2.49,8.72,8.72,0,0,0-2.51,6.43,8.81,8.81,0,0,0,2.52,6.61,9.2,9.2,0,0,0,6.73,2.47,11.37,11.37,0,0,0,4.09-.77,8.53,8.53,0,0,0,3.28-2.15l-2.33-2.26a5.3,5.3,0,0,1-2.17,1.34,8.18,8.18,0,0,1-2.8.51,6.1,6.1,0,0,1-3.84-1.18,4.6,4.6,0,0,1-1.76-3.14h13.91C917.4,609.34,916.77,606.78,915.17,605Zm-11.93,4.7a5,5,0,0,1,1.86-3.06,6.26,6.26,0,0,1,7,0,4,4,0,0,1,1.51,3.06Z"/><path class="cls-2" d="M964.5,619.27l-7.26-8.1a7.25,7.25,0,0,0,5-2.6,7.93,7.93,0,0,0,1.62-5,7.79,7.79,0,0,0-2.28-5.62,8.43,8.43,0,0,0-6.31-2.34l-5.67,0h-5.66V620h3.89v-8.41H953l7.41,8.41h4.55ZM947.82,608v-8.83h7.44a4.3,4.3,0,0,1,3.43,1.35,4.52,4.52,0,0,1,1.19,3.13,4.28,4.28,0,0,1-1.19,3.1,4.51,4.51,0,0,1-3.47,1.25Z"/><path class="cls-2" d="M989.12,605a8.59,8.59,0,0,0-6.71-2.63,8.85,8.85,0,0,0-6.51,2.49,9.75,9.75,0,0,0,0,13,9.2,9.2,0,0,0,6.74,2.47,11.39,11.39,0,0,0,4.08-.77,8.45,8.45,0,0,0,3.28-2.15l-2.33-2.26a5.3,5.3,0,0,1-2.17,1.34,8.18,8.18,0,0,1-2.8.51,6.08,6.08,0,0,1-3.84-1.18,4.6,4.6,0,0,1-1.76-3.14H991C991.35,609.34,990.72,606.78,989.12,605Zm-11.93,4.7a5,5,0,0,1,1.86-3.06,5.64,5.64,0,0,1,3.46-1.08,5.57,5.57,0,0,1,3.56,1.08,4,4,0,0,1,1.52,3.06Z"/><path class="cls-2" d="M1014.76,612.42a4,4,0,0,0-1.84-1.62,10.92,10.92,0,0,0-2.26-.76,22,22,0,0,0-2.53-.37c-2.45-.23-3.69-1-3.71-2.19a1.65,1.65,0,0,1,1-1.54,5.35,5.35,0,0,1,2.66-.51,6.41,6.41,0,0,1,4.52,1.6l2-2.36a10.45,10.45,0,0,0-11.56-1,4.29,4.29,0,0,0-2.17,3.92c0,3,2.35,4.71,7,5.14a8.69,8.69,0,0,1,3,.73,1.66,1.66,0,0,1,1,1.64,1.86,1.86,0,0,1-1.11,1.67,5.5,5.5,0,0,1-2.54.55,7.86,7.86,0,0,1-6-2.54l-1.88,2.54a9.93,9.93,0,0,0,7.82,3.17,8.49,8.49,0,0,0,5.28-1.5,4.79,4.79,0,0,0,2-3.93A5.06,5.06,0,0,0,1014.76,612.42Z"/><path class="cls-2" d="M1028.86,595.84a2.32,2.32,0,0,0-2.23,0,2,2,0,0,0-1.11,1.95,2,2,0,0,0,1.11,2,2.32,2.32,0,0,0,2.23,0,2,2,0,0,0,1.11-2A2,2,0,0,0,1028.86,595.84Zm-2.93,6.91V620h3.59V602.75Z"/><path class="cls-2" d="M1041.48,595.66V620h3.58v-24.3Z"/><path class="cls-2" d="M1059.94,595.84a2.3,2.3,0,0,0-2.22,0,2,2,0,0,0-1.12,1.95,2,2,0,0,0,1.12,2,2.3,2.3,0,0,0,2.22,0,2,2,0,0,0,1.11-2A2,2,0,0,0,1059.94,595.84Zm-2.92,6.91V620h3.58V602.75Z"/><path class="cls-2" d="M1087.09,605a8.61,8.61,0,0,0-6.71-2.63,9.2,9.2,0,0,0-6.48,15.53,9.17,9.17,0,0,0,6.72,2.47,11.33,11.33,0,0,0,4.09-.77,8.49,8.49,0,0,0,3.29-2.15l-2.33-2.26a5.3,5.3,0,0,1-2.17,1.34,8.18,8.18,0,0,1-2.8.51,6.11,6.11,0,0,1-3.85-1.18,4.59,4.59,0,0,1-1.75-3.14H1089C1089.33,609.34,1088.69,606.78,1087.09,605Zm-11.92,4.7a4.91,4.91,0,0,1,1.86-3.06,6.24,6.24,0,0,1,7,0,4.06,4.06,0,0,1,1.51,3.06Z"/><path class="cls-2" d="M1114.16,604.74a7,7,0,0,0-5.3-2.19,7.44,7.44,0,0,0-5.77,2.74l-.21-2.5h-3.27V620h3.58v-9a5.27,5.27,0,0,1,1.35-3.65,4.49,4.49,0,0,1,3.45-1.49,4.36,4.36,0,0,1,3.41,1.34,5.13,5.13,0,0,1,1.21,3.59V620h3.62v-9.21A8.39,8.39,0,0,0,1114.16,604.74Z"/><path class="cls-2" d="M1137.61,616.35a5,5,0,0,1-2.19.59c-1.64,0-2.47-.94-2.47-2.82V606h5v-3.09h-5v-5l-3.62.38v4.59h-3.3V606h3.3v8.17a6.31,6.31,0,0,0,1.51,4.57,5.57,5.57,0,0,0,4.33,1.49,8.48,8.48,0,0,0,3.44-.77Z"/><path class="cls-2" d="M1151.46,616.11a2.27,2.27,0,0,0-2.2,0,2,2,0,0,0-1.12,1.95,2,2,0,0,0,1.12,2,2.27,2.27,0,0,0,2.2,0,2,2,0,0,0,1.1-2A2,2,0,0,0,1151.46,616.11Zm7.46,0a2.32,2.32,0,0,0-2.23,0,2,2,0,0,0-1.11,1.95,2,2,0,0,0,1.11,2,2.32,2.32,0,0,0,2.23,0,2,2,0,0,0,1.12-2A2,2,0,0,0,1158.92,616.11Zm7.43,0a2.28,2.28,0,0,0-2.21,0,2,2,0,0,0-1.11,1.95,2,2,0,0,0,1.11,2,2.28,2.28,0,0,0,2.21,0,2,2,0,0,0,1.09-2A2,2,0,0,0,1166.35,616.11Z"/><path class="cls-2" d="M1193.51,605a8.58,8.58,0,0,0-6.71-2.63,9.2,9.2,0,0,0-6.48,15.53,9.18,9.18,0,0,0,6.73,2.47,11.31,11.31,0,0,0,4.08-.77,8.42,8.42,0,0,0,3.29-2.15l-2.33-2.26a5.3,5.3,0,0,1-2.17,1.34,8.18,8.18,0,0,1-2.8.51,6.08,6.08,0,0,1-3.84-1.18,4.6,4.6,0,0,1-1.76-3.14h13.91C1195.76,609.34,1195.11,606.78,1193.51,605Zm-11.92,4.7a5,5,0,0,1,1.86-3.06,6.24,6.24,0,0,1,7,0,4,4,0,0,1,1.51,3.06Z"/><path class="cls-2" d="M1206.41,594.24v29H1210v-29Z"/><path class="cls-2" d="M1243.37,619.27l-7.26-8.1a7.23,7.23,0,0,0,5-2.6,8.26,8.26,0,0,0-.65-10.6,8.41,8.41,0,0,0-6.32-2.34l-5.66,0h-5.67V620h3.89v-8.41h5.15l7.4,8.41h4.56ZM1226.68,608v-8.83h7.44a4.35,4.35,0,0,1,3.45,1.35,4.6,4.6,0,0,1,1.18,3.13,4.35,4.35,0,0,1-1.18,3.1,4.55,4.55,0,0,1-3.48,1.25Z"/><path class="cls-2" d="M1268,605a8.61,8.61,0,0,0-6.71-2.63,8.8,8.8,0,0,0-6.5,2.49,8.68,8.68,0,0,0-2.51,6.43,8.78,8.78,0,0,0,2.53,6.61,9.16,9.16,0,0,0,6.72,2.47,11.37,11.37,0,0,0,4.09-.77,8.6,8.6,0,0,0,3.28-2.15l-2.33-2.26a5.34,5.34,0,0,1-2.18,1.34,8.12,8.12,0,0,1-2.79.51,6.1,6.1,0,0,1-3.84-1.18,4.57,4.57,0,0,1-1.76-3.14h13.91C1270.23,609.34,1269.59,606.78,1268,605Zm-11.92,4.7a4.86,4.86,0,0,1,1.86-3.06,6.24,6.24,0,0,1,7,0,4.09,4.09,0,0,1,1.51,3.06Z"/><path class="cls-2" d="M1293.63,612.42a4,4,0,0,0-1.85-1.62,10.3,10.3,0,0,0-2.25-.76,22.16,22.16,0,0,0-2.52-.37c-2.46-.23-3.71-1-3.72-2.19a1.67,1.67,0,0,1,1-1.54,5.35,5.35,0,0,1,2.65-.51,6.37,6.37,0,0,1,4.52,1.6l2-2.36a10.45,10.45,0,0,0-11.56-1,4.29,4.29,0,0,0-2.17,3.92q0,4.49,7,5.14a8.82,8.82,0,0,1,3,.73,1.66,1.66,0,0,1,1,1.64,1.87,1.87,0,0,1-1.12,1.67,5.4,5.4,0,0,1-2.53.55,7.88,7.88,0,0,1-6-2.54l-1.88,2.54a10,10,0,0,0,7.83,3.17,8.58,8.58,0,0,0,5.29-1.5,4.79,4.79,0,0,0,2-3.93A5.06,5.06,0,0,0,1293.63,612.42Z"/><path class="cls-2" d="M1307.72,595.84a2.3,2.3,0,0,0-2.22,0,2,2,0,0,0-1.11,1.95,2,2,0,0,0,1.11,2,2.3,2.3,0,0,0,2.22,0,2,2,0,0,0,1.12-2A2,2,0,0,0,1307.72,595.84Zm-2.91,6.91V620h3.58V602.75Z"/><path class="cls-2" d="M1320.34,595.66V620h3.59v-24.3Z"/><path class="cls-2" d="M1338.81,595.84a2.32,2.32,0,0,0-2.23,0,2,2,0,0,0-1.11,1.95,2,2,0,0,0,1.11,2,2.32,2.32,0,0,0,2.23,0,2,2,0,0,0,1.11-2A2,2,0,0,0,1338.81,595.84Zm-2.92,6.91V620h3.58V602.75Z"/><path class="cls-2" d="M1366,605a8.59,8.59,0,0,0-6.71-2.63,8.81,8.81,0,0,0-6.5,2.49,8.71,8.71,0,0,0-2.5,6.43,8.81,8.81,0,0,0,2.52,6.61,9.16,9.16,0,0,0,6.73,2.47,11.39,11.39,0,0,0,4.08-.77,8.56,8.56,0,0,0,3.29-2.15l-2.34-2.26a5.3,5.3,0,0,1-2.17,1.34,8.18,8.18,0,0,1-2.8.51,6.1,6.1,0,0,1-3.84-1.18,4.55,4.55,0,0,1-1.75-3.14h13.9C1368.2,609.34,1367.56,606.78,1366,605Zm-11.93,4.7a5,5,0,0,1,1.86-3.06,5.64,5.64,0,0,1,3.46-1.08,5.57,5.57,0,0,1,3.56,1.08,4,4,0,0,1,1.52,3.06Z"/><path class="cls-2" d="M1393,604.74a6.94,6.94,0,0,0-5.29-2.19,7.49,7.49,0,0,0-5.78,2.74l-.21-2.5h-3.26V620h3.58v-9a5.23,5.23,0,0,1,1.36-3.65,4.45,4.45,0,0,1,3.43-1.49,4.34,4.34,0,0,1,3.41,1.34,5.14,5.14,0,0,1,1.22,3.59V620h3.62v-9.21A8.35,8.35,0,0,0,1393,604.74Z"/><path class="cls-2" d="M1416.48,616.35a5,5,0,0,1-2.19.59c-1.65,0-2.47-.94-2.47-2.82V606h5v-3.09h-5v-5l-3.61.38v4.59h-3.3V606h3.3v8.17a6.27,6.27,0,0,0,1.51,4.57,5.57,5.57,0,0,0,4.33,1.49,8.48,8.48,0,0,0,3.44-.77Z"/><path class="cls-2" d="M1430.33,616.11a2.28,2.28,0,0,0-2.21,0,2,2,0,0,0-1.1,1.95,2,2,0,0,0,1.1,2,2.28,2.28,0,0,0,2.21,0,2,2,0,0,0,1.1-2A2,2,0,0,0,1430.33,616.11Zm7.46,0a2.3,2.3,0,0,0-2.22,0,2,2,0,0,0-1.12,1.95,2,2,0,0,0,1.12,2,2.3,2.3,0,0,0,2.22,0,2,2,0,0,0,1.11-2A2,2,0,0,0,1437.79,616.11Zm7.42,0a2.28,2.28,0,0,0-2.21,0,2,2,0,0,0-1.11,1.95,2.05,2.05,0,0,0,1.11,2,2.28,2.28,0,0,0,2.21,0,2,2,0,0,0,1.1-2A2,2,0,0,0,1445.21,616.11Z"/><rect class="cls-2" x="736.63" y="407.6" width="5.33" height="264.81"/></svg>